<?xml version="1.0" encoding="UTF-8"?>
<svg id="Icon" xmlns="http://www.w3.org/2000/svg" viewBox="0 0 415.28 415.28">
  <defs>
    <style>
      .cls-1 {
        fill: #fff;
      }

      .cls-2 {
        fill: none;
      }
    </style>
  </defs>
  <ellipse class="cls-2" cx="207.37" cy="156.4" rx="32.08" ry="32.96"/>
  <path class="cls-2" d="M206.7,312.74c-72.96-.61-98.43,35.1-98.47,35.15,23.69,16.52,55.66,27.62,98.82,27.48,41.01-.13,71.97-10.32,95.33-25.59-.07-.11-22.78-36.43-95.68-37.04Z"/>
  <path class="cls-2" d="M207.04,42.07s-161.2-.38-166.6,166.73c0,0-.04,61.5,37.15,109.76.12-.13,45.28-49.1,129.5-47.48,84.29,1.62,130.07,46.12,130.13,46.17,36.86-48.23,37.06-108.96,37.06-108.96,0,0-.11-155.98-167.25-166.23ZM207.37,227.06c-37.98,0-68.76-31.63-68.76-70.65s30.79-70.65,68.76-70.65,68.76,31.63,68.76,70.65-30.79,70.65-68.76,70.65Z"/>
  <path class="cls-1" d="M207.64,0C92.96,0,0,92.96,0,207.64s92.96,207.64,207.64,207.64,207.64-92.96,207.64-207.64S322.32,0,207.64,0ZM207.04,375.37c-43.15.14-75.12-10.96-98.82-27.48.04-.05,25.51-35.76,98.47-35.15,72.9.61,95.61,36.93,95.68,37.04-23.37,15.28-54.32,25.46-95.33,25.59ZM337.23,317.25c-.05-.05-45.84-44.56-130.13-46.17-84.23-1.62-129.38,47.35-129.5,47.48-37.19-48.26-37.15-109.76-37.15-109.76C45.84,41.69,207.04,42.07,207.04,42.07c167.13,10.25,167.25,166.23,167.25,166.23,0,0-.2,60.72-37.06,108.96Z"/>
  <path class="cls-1" d="M207.37,85.75c-37.98,0-68.76,31.63-68.76,70.65s30.79,70.65,68.76,70.65,68.76-31.63,68.76-70.65-30.79-70.65-68.76-70.65ZM207.37,189.37c-17.72,0-32.08-14.76-32.08-32.96s14.36-32.96,32.08-32.96,32.08,14.76,32.08,32.96-14.36,32.96-32.08,32.96Z"/>
</svg>